<svg width="18" height="18" viewBox="0 0 18 18" fill="none" xmlns="http://www.w3.org/2000/svg">
<path d="M14.8717 10.0263C14.7969 10.075 14.7 10.0999 14.5877 10.0896L14.4703 10.0671L13.5887 9.81289C13.3379 9.74075 13.1386 9.68311 12.9768 9.62653L12.8271 9.57011C12.6877 9.51246 12.5871 9.45404 12.5094 9.38332L12.4385 9.30783C12.3743 9.22799 12.3287 9.13471 12.2951 9.00974L12.2652 8.87291C12.2475 8.77464 12.2351 8.66249 12.2235 8.53165L12.1897 8.07786L12.1246 7.07982C12.1195 7.0026 12.1126 6.90025 12.0958 6.81111C12.0812 6.73344 12.0544 6.63905 11.9965 6.54493L11.9285 6.45149C11.8231 6.33096 11.6987 6.27151 11.5977 6.23773C11.5549 6.2234 11.5085 6.2116 11.4639 6.20138L11.3403 6.17543C10.0157 5.90765 8.59956 5.86938 7.24997 6.06271L6.67651 6.16028C6.60352 6.17454 6.50386 6.1935 6.41805 6.22159C6.34227 6.24641 6.25339 6.28496 6.16902 6.35337L6.08659 6.43251C5.97849 6.55444 5.93571 6.68764 5.91556 6.79103C5.90688 6.83557 5.90096 6.88343 5.89646 6.92977L5.88637 7.05956L5.81408 8.05646C5.79524 8.31668 5.77943 8.52362 5.75746 8.69364L5.73346 8.85239C5.70585 9.00049 5.66943 9.1109 5.61632 9.20142L5.55735 9.28616C5.4925 9.36555 5.41028 9.42895 5.29498 9.48764L5.16773 9.54523C5.07505 9.58285 4.96737 9.619 4.84144 9.65742L4.40461 9.78306L3.52129 10.0315C3.39871 10.0659 3.28954 10.0614 3.20089 10.0291L3.11954 9.98743C3.04578 9.93847 2.9841 9.85994 2.95045 9.74795L2.92599 9.62496C2.83749 8.72709 3.14877 7.81179 3.859 7.25806L4.00643 7.15151C4.50669 6.82157 5.05012 6.54494 5.78589 6.31828L6.11351 6.22405C7.84204 5.76162 9.8022 5.73982 11.5552 6.15472L11.9029 6.24286C12.6952 6.46038 13.2734 6.72633 13.7869 7.04448L14.0032 7.18467C14.7636 7.69346 15.1225 8.58651 15.0813 9.4849L15.0669 9.66439C15.0527 9.79888 15.0061 9.89907 14.9416 9.96782L14.8717 10.0263Z" fill="#FCFBFC" stroke="#FCFBFC"/>
</svg>
