<?xml version="1.0" encoding="UTF-8" standalone="no"?>
<!-- Created with Inkscape (http://www.inkscape.org/) -->

<svg
   width="326.31204mm"
   height="89.901123mm"
   viewBox="0 0 326.31204 89.901123"
   version="1.1"
   id="svg1"
   xml:space="preserve"
   inkscape:export-filename="zajacovic_text_icon"
   inkscape:export-xdpi="96"
   inkscape:export-ydpi="96"
   xmlns:inkscape="http://www.inkscape.org/namespaces/inkscape"
   xmlns:sodipodi="http://sodipodi.sourceforge.net/DTD/sodipodi-0.dtd"
   xmlns="http://www.w3.org/2000/svg"
   xmlns:svg="http://www.w3.org/2000/svg"><sodipodi:namedview
     id="namedview1"
     pagecolor="#ffffff"
     bordercolor="#000000"
     borderopacity="0.25"
     inkscape:showpageshadow="2"
     inkscape:pageopacity="0.0"
     inkscape:pagecheckerboard="0"
     inkscape:deskcolor="#d1d1d1"
     inkscape:document-units="mm"><inkscape:page
       x="0"
       y="0"
       width="326.31204"
       height="89.901123"
       id="page2"
       margin="0"
       bleed="0" /></sodipodi:namedview><defs
     id="defs1" /><g
     inkscape:label="Vrstva 1"
     inkscape:groupmode="layer"
     id="layer1"
     transform="translate(-4.7281221,78.390921)"><g
       id="g2"
       transform="translate(-55.48072,-32.830334)"><path
         style="fill:#000000"
         d="m 65.282493,43.903264 c -3.56802,-1.2346 -5.39608,-4.19989 -5.02684,-8.15401 0.0886,-0.94837 0.34346,-2.63608 0.56644,-3.75047 0.93457,-4.67065 2.29847,-11.89481 3.17988,-16.84282 0.51845,-2.91041 1.3496,-7.3752585 1.84701,-9.921867 0.49741,-2.5466195 1.15575,-6.05895933 1.46299,-7.8052093 0.30724,-1.7462501 0.9039,-4.9014102 1.32592,-7.01146 0.42202,-2.1100507 1.19505,-6.2177137 1.71785,-9.1281337 0.52279,-2.91042 1.3654,-7.43479 1.87245,-10.05417 0.50705,-2.61938 1.10327,-5.70107 1.32493,-6.8482 0.52899,-2.73764 1.21379,-4.13183 2.95125,-6.00849 1.6018,-1.73014 3.6967,-2.99328 5.9242,-3.57207 2.30332,-0.59848 69.519177,-0.41595 71.665957,0.19462 3.69056,1.04964 6.85409,3.32539 8.40689,6.04768 1.52028,2.66525 3.00709,4.49727 4.23626,5.21982 l 1.24747,0.73331 106.09791,0.13229 106.09791,0.13229 1.45521,0.5908 c 1.92,0.77951 3.66143,2.43141 4.36363,4.13932 0.78328,1.90509 0.73353,2.83438 -0.49231,9.19509 -0.65539,3.40072 -1.44661,7.611883 -1.75826,9.3581335 -0.31166,1.74625 -0.79378,4.3656301 -1.07138,5.8208302 -0.2776,1.4552099 -0.73195,3.83645986 -1.00965,5.2916698 -0.27771,1.45521 -0.69748,3.7173992 -0.93283,5.0270786 -1.02486,5.7030779 -2.31504,12.5687879 -2.65999,14.1552079 -0.20568,0.94589 -0.56425,2.85089 -0.79684,4.23334 -0.40803,2.42528 -0.61285,3.50219 -1.72076,9.04738 -0.28187,1.41081 -0.81157,3.15531 -1.17711,3.87666 -0.99636,1.96621 -3.26829,4.08477 -5.63475,5.25434 l -2.03125,1.0039 -150.03247,0.0581 c -143.503607,0.0556 -150.091967,0.0375 -151.399717,-0.41497 z M 199.76057,32.283674 c 0.1595,-0.10691 1.03387,-4.18297 1.94305,-9.05792 0.90918,-4.87494 1.94203,-10.35182 2.29523,-12.17083 0.35319,-1.8190094 0.87679,-4.6169779 1.16353,-6.217707 0.28675,-1.6007295 0.68506,-3.7438495 0.88514,-4.76249944 0.20008,-1.01863989 0.74542,-3.93567986 1.21185,-6.48229006 0.46644,-2.54662 1.14585,-6.1456115 1.50982,-7.9977725 0.36396,-1.852161 0.58653,-3.489261 0.49459,-3.638021 -0.10811,-0.17493 -3.03541,-0.26841 -8.28747,-0.26465 -7.59641,0.005 -8.19714,0.0406 -9.31095,0.54476 -1.35644,0.61402 -2.51985,1.63136 -3.07004,2.684601 -0.37174,0.71164 -1.22399,4.703453 -2.21846,10.3908726 -0.68159,3.89809007 -1.29404,7.2614499 -1.46945,8.0697899 -0.0789,0.36381 -0.25003,1.25677 -0.38018,1.9843792 -1.05289,5.8859873 -3.76106,20.4789473 -3.98841,21.4914173 -0.40959,1.82411 -0.61933,3.24777 -0.63431,4.30544 l -0.0131,0.92605 3.02041,0.0752 c 1.66122,0.0414 3.11303,-0.0182 3.22624,-0.13229 0.19946,-0.20109 0.79917,-3.11148 2.73564,-13.2761 0.50992,-2.67658 0.97738,-4.91677 1.0388,-4.97819 0.25813,-0.25813 6.40001,-1.58687 6.57982,-1.42349 0.10821,0.0983 -0.57587,4.56134 -1.52018,9.91782 -0.94432,5.35648 -1.6509,9.84588 -1.5702,9.97647 0.17499,0.28313 5.9411,0.31482 6.35864,0.0349 z M 191.25196,6.3578161 c 0.58603,-3.3319786 3.11181,-16.2413284 3.34116,-17.0768191 0.35557,-1.29531 0.93725,-1.509401 4.10092,-1.509401 h 2.49632 l -0.0105,0.727601 c -0.006,0.40018 -0.16457,1.5610407 -0.35288,2.5796905 -0.1883,1.01864 -0.66776,3.6975501 -1.06545,5.9531202 -0.39769,2.25557997 -0.92351,5.1689598 -1.16848,6.4741998 l -0.4454,2.3731489 -1.19062,0.21313 c -0.65485,0.11722 -1.84547,0.3770697 -2.64584,0.5774397 -0.80036,0.2003797 -1.85534,0.4351997 -2.3444,0.5218197 l -0.8892,0.15751 z M 250.6157,32.125714 c 0.20688,-0.27276 0.63068,-2.36162 1.80567,-8.89996 0.22229,-1.23692 0.63057,-3.43958 0.9073,-4.89479 0.61584,-3.23849 2.23738,-11.9338479 2.76307,-14.8166665 0.48488,-2.65898997 1.84965,-9.78454 2.50848,-13.0968698 0.27498,-1.3824507 0.70724,-3.8031917 0.96059,-5.3794227 0.39699,-2.469841 0.40847,-2.899741 0.0831,-3.110931 -0.21669,-0.14065 -3.81551,-0.21599 -8.44732,-0.17683 l -8.06979,0.0682 -1.32291,0.68015 c -2.53239,1.30198 -2.87826,2.252081 -4.76093,13.0781836 -0.37959,2.1828201 -0.80001,4.50453996 -0.93427,5.15937993 -0.27529,1.34274997 -1.29165,6.81475797 -2.11315,11.37707647 -0.73545,4.08442 -1.13321,6.23067 -2.08394,11.2448 -1.31038,6.91088 -1.56737,8.45606 -1.44112,8.66509 0.21469,0.35548 6.0817,0.2336 6.36828,-0.13229 0.14247,-0.1819 0.40738,-1.10464 0.58869,-2.05052 0.18131,-0.94588 0.36492,-1.89838 0.40803,-2.11666 0.32094,-1.62523 2.23305,-11.69741 2.36075,-12.43542 0.0881,-0.50932 0.26296,-1.08806 0.38852,-1.2861 0.12556,-0.19803 1.64185,-0.68582 3.36954,-1.08399 3.03097,-0.69851 3.14431,-0.70619 3.22799,-0.21864 0.0983,0.57261 -0.35185,3.2941 -2.60448,15.74676 -0.32197,1.77987 -0.51388,3.42254 -0.42646,3.65035 0.13284,0.34617 0.65817,0.40731 3.1975,0.37215 1.91354,-0.0265 3.12307,-0.15351 3.26685,-0.34307 z M 241.9364,6.8462658 c 1.2e-4,-0.2318497 0.16527,-1.2549891 0.36701,-2.2736283 0.20173,-1.01865 0.99659,-5.08701993 1.76636,-9.0408299 1.29517,-6.6524706 1.44636,-7.2100606 2.0267,-7.4744806 0.34491,-0.15715 1.81214,-0.285731 3.2605,-0.285731 3.03647,0 2.9036,-0.16865 2.25178,2.8581815 -0.20988,0.97461 -0.88934,4.7485901 -1.5099,8.38661017 -0.62057,3.63801983 -1.24543,6.69514903 -1.38857,6.79361873 -0.14314,0.0985 -0.9222,0.30567 -1.73124,0.46044 -0.80904,0.1547597 -2.27465,0.4424897 -3.25691,0.6393794 -1.60739,0.32221 -1.78592,0.31585 -1.78573,-0.0636 z m 32.27895,24.8402282 c 0.89025,-0.45215 1.67725,-1.31461 2.34607,-2.57101 0.27359,-0.51394 1.11788,-4.65767 1.52351,-7.47723 0.0733,-0.50932 0.40599,-2.29526 0.73937,-3.96875 0.33338,-1.67349 0.5497,-3.19519 0.48072,-3.38156 -0.0943,-0.25482 -0.8886,-0.32043 -3.20286,-0.26458 l -3.07743,0.0743 -0.30882,1.05833 c -0.16984,0.58209 -0.63513,2.96334 -1.03396,5.29167 -0.39884,2.32833 -0.82247,4.50122 -0.94141,4.82864 -0.20721,0.57042 -0.34379,0.59532 -3.26551,0.59532 -2.54037,0 -3.04926,-0.0666 -3.04926,-0.39873 0,-0.70716 2.14541,-12.2974 5.82036,-31.4436365 0.58234,-3.03398 1.05881,-5.5640605 1.05881,-5.6224005 0,-0.0583 1.42875,-0.10607 3.175,-0.10607 1.74625,0 3.175,0.072 3.175,0.15991 0,0.088 -0.41672,2.2435705 -0.92605,4.7902605 -0.50932,2.5467001 -0.92604,4.9787202 -0.92604,5.4044902 v 0.77412987 l 3.22438,-0.0743 3.22437,-0.0743 0.82857,-4.36561997 c 2.06985,-10.9058236 2.04996,-10.6780136 1.03756,-11.8811836 -1.06624,-1.26715 -1.96015,-1.39678 -8.97634,-1.30173 -6.21303,0.0842 -6.3756,0.10037 -7.53729,0.75082 -2.1251,1.18987 -2.22014,1.51553 -5.17253,17.72375356 -0.22531,1.23692994 -0.93512,4.98739944 -1.57736,8.33437734 -0.64224,3.3469791 -1.34731,7.0974491 -1.56681,8.3343691 -0.21951,1.23693 -0.82343,4.45162 -1.34204,7.14375 -1.00555,5.21987 -1.01363,6.25759 -0.0558,7.17554 1.31194,1.25738 1.72379,1.31037 8.78521,1.13038 5.58976,-0.14248 6.75806,-0.24147 7.54062,-0.63893 z m -99.61239,-1.42552 c 0.2399,-1.07832 0.45639,-2.53684 0.48107,-3.24114 l 0.0449,-1.28053 -6.03023,-0.0711 -6.03023,-0.0711 1.56583,-2.97156 c 0.86121,-1.63437 2.72596,-5.23376 4.14389,-7.99865 1.41793,-2.7649 3.20544,-6.2177088 3.97225,-7.6729182 2.78194,-5.2794183 7.27236,-13.9180883 8.73326,-16.8010381 0.47932,-0.9458907 1.00343,-2.3746417 1.16469,-3.1750017 0.16127,-0.800371 0.35514,-1.752871 0.43082,-2.116671 0.0757,-0.363801 0.20965,-1.227011 0.2977,-1.918231 l 0.1601,-1.25677 h -9.80861 c -9.11177,0 -9.81856,0.0329 -9.9487,0.46302 -0.16157,0.53402 -0.65648,3.380261 -0.87411,5.027082 l -0.14861,1.124481 h 5.98754 c 3.29314,0 5.98753,0.0663 5.98753,0.14742 0,0.16907 -6.31065,12.54407053 -14.4967,28.427577 -4.56005,8.84795 -4.75878,9.30077 -5.06808,11.54813 -0.15728,1.14284 -0.35718,2.46486 -0.44421,2.9378 l -0.15823,0.8599 h 9.80098 9.80098 z m 48.73793,1.19038 c 2.18615,-1.58363 1.98211,-0.90564 4.70487,-15.63393 0.20176,-1.09141 0.67648,-3.59172 1.05492,-5.55625 0.37845,-1.9645288 0.8576,-4.5243773 1.06478,-5.6885365 0.20718,-1.16417 0.74072,-3.90260997 1.18564,-6.0854198 0.44493,-2.1828101 1.10134,-5.5304802 1.45868,-7.4392602 0.35735,-1.9087705 0.88974,-4.7067415 1.1831,-6.2177025 0.29335,-1.510961 0.53373,-2.836501 0.53417,-2.945641 4.4e-4,-0.10914 -1.47945,-0.19844 -3.28866,-0.19844 -2.90513,0 -3.30519,0.0541 -3.42411,0.46302 -0.22262,0.7655 -1.40959,6.754993 -2.39887,12.1046935 -0.51128,2.7648902 -1.04759,5.56286009 -1.19179,6.21771003 -0.1442,0.65483997 -0.50756,2.61936997 -0.80746,4.36561947 -0.29991,1.7462491 -0.77262,4.3060976 -1.05048,5.688537 -0.27785,1.38245 -0.7612,3.9423 -1.07409,5.68855 -0.65779,3.67103 -1.5154,8.1989 -1.71641,9.06197 -0.13398,0.57525 -0.24227,0.59532 -3.21275,0.59532 h -3.0741 l 0.17438,-1.52136 c 0.0959,-0.83674 0.47631,-2.99686 0.84533,-4.80026 0.40026,-1.95601 0.57437,-3.3755 0.43156,-3.51831 -0.30537,-0.30537 -5.63522,-0.53321 -6.07204,-0.25957 -0.2682,0.16802 -2.07245,8.7485 -2.63492,12.53091 -0.20709,1.39258 0.085,2.26973 1.04891,3.15015 l 0.84132,0.76843 h 7.17738 7.17738 z m 76.39959,0.16616 c 2.089,-1.18316 2.35138,-1.89595 3.97757,-10.8056 0.80683,-4.42046 1.52002,-8.18678 1.58488,-8.36959 0.0649,-0.18282 0.6035,-3.0403194 1.19698,-6.3499976 0.59349,-3.3096889 1.48182,-8.1011987 1.97407,-10.6478188 2.27996,-11.7950136 2.28592,-12.0428736 0.31876,-13.2423336 -0.77538,-0.47279 -1.37481,-0.5141 -7.47179,-0.51501 -6.53172,-9.8e-4 -6.64795,0.009 -7.9375,0.65595 -2.51361,1.26176 -2.41421,0.92189 -5.95943,20.3774335 -0.13258,0.72761 -0.36448,1.91823 -0.51534,2.6458392 -0.15085,0.7275997 -1.04998,5.5496273 -1.99807,10.7156173 -0.9481,5.16599 -1.88914,10.1898 -2.0912,11.16401 -0.45711,2.20382 -0.18783,3.3659 0.9962,4.29913 l 0.85078,0.67057 7.01146,-10e-4 c 6.78215,-10e-4 7.04584,-0.0209 8.06263,-0.59678 z m -9.793,-6.33278 c 0.0748,-0.33207 0.43194,-2.33485 0.7936,-4.45061 0.36167,-2.11577 1.18517,-6.58061 1.83,-9.92188 0.64484,-3.3412585 1.37667,-7.2061165 1.62629,-8.5885665 0.24963,-1.38244997 0.84581,-4.5375998 1.32486,-7.0114599 0.47904,-2.4738501 0.95464,-5.0634599 1.05689,-5.7546896 l 0.1859,-1.256771 h 3.14496 c 1.72972,0 3.14496,0.084 3.14496,0.18674 0,0.10271 -0.35165,2.0374807 -0.78145,4.2994805 -0.42979,2.2620101 -1.08818,5.7796202 -1.46309,7.81691003 -0.37491,2.03728997 -1.02065,5.49009887 -1.43498,7.67290767 -0.41434,2.1828188 -0.96826,5.1593788 -1.23095,6.6145888 -0.26268,1.45521 -0.84289,4.4913 -1.28934,6.74687 l -0.81173,4.10105 -3.11598,0.0746 -3.11598,0.0746 z m 31.0258,2.17436 c 0.77334,-2.54662 1.83351,-5.99943 2.35592,-7.67292 1.37417,-4.40202 3.02406,-9.75134 4.73311,-15.3458265 0.82242,-2.69214 2.07339,-6.7402598 2.77993,-8.9958399 0.70655,-2.2555701 1.53994,-4.9940099 1.852,-6.0854106 0.31205,-1.09141 0.91461,-3.032951 1.33903,-4.314542 1.1733,-3.542941 1.28905,-3.358381 -2.10636,-3.358381 -1.98194,0 -2.96213,0.10297 -3.14818,0.33073 -0.14859,0.1819 -0.64806,1.64042 -1.10994,3.241141 -0.80742,2.798222 -1.64513,5.6718425 -5.43771,18.6531325 -3.41478,11.6881365 -3.67108,12.5162165 -3.77626,12.2006965 -0.0586,-0.17568 0.0312,-1.71279 0.19956,-3.41579 0.48793,-4.9366485 1.04131,-10.6160065 1.60362,-16.4578264 0.28715,-2.9831701 0.65072,-6.6741096 0.80793,-8.2020806 0.15722,-1.527971 0.30648,-3.552033 0.3317,-4.497923 l 0.0459,-1.71979 -3.28557,-0.0747 c -1.80706,-0.041 -3.388,0.0278 -3.5132,0.153 -0.1252,0.1252 -0.34188,2.36145 -0.48151,4.969442 -0.13962,2.607992 -0.37738,6.5872615 -0.52834,8.8428416 -0.15096,2.2555701 -0.38728,6.1846299 -0.52515,8.7312499 -0.3223,5.9531465 -0.48574,8.7380165 -0.79968,13.6260365 -0.62451,9.72346 -0.80849,13.64409 -0.65214,13.89707 0.10619,0.17184 1.59388,0.24512 4.03871,0.19894 l 3.87059,-0.0731 z m 15.55514,4.43176 c 0.0657,-0.1819 0.78012,-3.9026 1.58769,-8.26822 1.2443,-6.72658 2.7726,-14.8012491 4.48197,-23.68020644 0.56421,-2.93068986 2.47474,-13.02486156 2.94689,-15.56975356 0.22533,-1.21456 0.37155,-2.24628 0.32493,-2.29269 -0.0802,-0.0798 -5.13481,-0.20799 -6.0862,-0.15433 -0.24485,0.0138 -0.50967,0.23346 -0.58848,0.48812 -0.15808,0.51081 -1.91307,9.7618835 -2.79827,14.7505237 -0.30986,1.7462499 -0.7295,4.0084398 -0.93253,5.0270898 -0.20303,1.01864 -0.9115,4.7095783 -1.57436,8.2020765 -0.66287,3.4925 -1.51472,7.95735 -1.893,9.92188 -0.71687,3.72293 -2.21596,11.72525 -2.21802,11.84009 -6.5e-4,0.0364 1.49083,0.0661 3.31441,0.0661 2.41242,0 3.34811,-0.0901 3.43497,-0.33073 z m 22.82716,-0.17269 c 1.16848,-0.59923 1.97404,-1.45398 2.39316,-2.53928 0.51721,-1.33932 2.9893,-14.67797 2.78236,-15.0128 -0.0682,-0.11041 -1.48881,-0.20074 -3.15683,-0.20074 -2.89737,0 -3.04351,0.0266 -3.27349,0.59531 -0.1324,0.32742 -0.6954,2.97656 -1.2511,5.88698 l -1.01037,5.29167 -3.14425,0.0748 -3.14424,0.0748 0.14868,-1.13318 c 0.0818,-0.62325 0.21532,-1.43084 0.29678,-1.79464 0.27185,-1.2141 0.92709,-4.60498 1.32932,-6.87917 0.47469,-2.68395 0.9498,-5.2482 1.86285,-10.0541576 0.37323,-1.9645289 1.20992,-6.48890881 1.85932,-10.0541687 0.6494,-3.5652602 1.24426,-6.7501807 1.3219,-7.0776007 0.13669,-0.57638 0.24199,-0.59532 3.31114,-0.59532 1.74348,0 3.16996,0.0895 3.16996,0.19896 0,0.10943 -0.24345,1.448891 -0.541,2.9765705 -0.63682,3.26952 -1.29992,7.1342502 -1.30647,7.61439017 -0.004,0.26116 0.73489,0.32183 3.22012,0.26458 l 3.22475,-0.0743 0.17775,-0.79374997 c 0.0978,-0.43656 0.38347,-1.92484 0.63489,-3.3072901 0.46476,-2.5555101 1.00653,-5.4116396 1.48197,-7.8127216 0.45318,-2.288631 0.38796,-3.200252 -0.30116,-4.209652 -0.35075,-0.51376 -0.98292,-1.055 -1.40481,-1.20275 -1.08102,-0.37857 -13.06264,-0.35117 -14.20854,0.0325 -1.21694,0.40745 -2.54148,1.42495 -2.98395,2.29224 -0.35131,0.688641 -0.74062,2.430282 -1.60856,7.1962235 -0.22526,1.23693 -0.88807,4.8088001 -1.47291,7.93750007 -0.58484,3.12869993 -1.24935,6.70057883 -1.47669,7.93749823 -0.22734,1.2369291 -0.57401,3.0823982 -0.77038,4.1010482 -0.19637,1.01864 -0.48446,2.56645 -0.6402,3.43958 -0.15574,0.87312 -0.34272,1.88515 -0.41551,2.24896 -0.13522,0.67579 -0.76843,4.07396 -1.72423,9.25313 -0.60586,3.28293 -0.44867,4.16514 0.93625,5.25452 0.70622,0.5555 0.94948,0.57359 7.71552,0.57359 6.34687,0 7.07617,-0.0461 7.96797,-0.50342 z m 10.3948,-54.00075 c 0.23851,-0.65484 0.51712,-1.53706 0.61912,-1.96048 l 0.18547,-0.76985 -6.34306,0.16155 c -6.58218,0.16765 -7.60304,0.33577 -8.54865,1.40779 -0.24235,0.27474 -0.52385,0.94796 -0.62557,1.49603 l -0.18493,0.9965 7.23198,-0.0704 7.23199,-0.0704 z"
         id="path2"
         sodipodi:nodetypes="ssssssssssssssscccsssssssssssscssscssssssscsssccsscccsssssccsssccssscssscssssssssscsssssssssssssssssscssssssssscccssssscssssssssssscccssssssssssccsscccssssssscssscssssscccsssssssssssssssssscsssssscccscsssssscssssscsccsssssscssssssscccsssssssssssscsssccssssssscscsssssssssssscccssssscccssssssssscscssssssssssssssssccsscssscccs" /><path
         style="fill:#e22a2a;fill-opacity:1;stroke-width:0.201409"
         d="m 88.207994,-34.796818 c 1.93525,0.38704 3.87519,1.0435 5.80757,1.26498 1.48249,-0.2959 3.02159,-1.02987 4.47059,-1.06676 2.159456,0.94866 3.177856,3.24267 4.754986,4.87791 1.91455,3.85037 4.09057,7.59308 5.84257,11.51041 0.44411,1.41828 0.88822,2.83658 1.33233,4.25488 1.3559,-0.15735 2.87546,0.32611 4.05115,-0.53691 0.12792,-3.66408 0.98081,-7.3516 3.01204,-10.4444 1.58353,-2.69675 3.78924,-4.98066 6.25774,-6.87514 2.95592,-2.35366 6.55704,-3.67296 10.17103,-4.64774 2.41469,-0.55724 4.94451,-1.05734 7.4222,-0.91275 1.39166,-0.097 2.83615,0.91714 2.56876,2.4291 0.14451,2.08793 -0.0893,4.20831 -1.3036,5.97707 -1.61045,2.83535 -3.75306,5.31778 -6.18978,7.471 -2.89088,2.81633 -6.14165,5.26557 -9.4282,7.60351 -2.23224,1.56786 -4.51268,3.06611 -6.84836,4.4754807 0.58774,1.85394 2.24291,3.15218 3.21548,4.82553 1.64356,2.17325 3.25104,4.73407401 2.88563,7.578314 -0.004,1.37646 0.30964,2.9935 -1.08281,3.8315 -2.01313,1.74551 -4.14175,3.3599393 -6.53137,4.5572493 -0.43236,1.12225 -0.38331,2.43722 0.73212,3.12378 1.3773,0.86677 2.46931,2.13314 2.61484,3.81437 0.28537,1.04046 0.12845,2.72133 1.69054,2.1436 1.74728,-0.39505 3.62801,-0.0982 4.9227,1.21038 1.23502,0.88047 2.2439,2.27454 1.80852,3.8553 -0.10272,1.76745 -0.9189,3.405372 -1.27481,5.132092 2.17632,-0.22376 4.26362,-1.03835 6.48903,-1.00226 2.4068,-0.26351 4.83981,0.49151 6.65694,2.09519 1.12739,0.66143 1.47592,2.09897 -7.6e-4,2.58032 -1.49518,1.16685 -3.56259,1.0267 -5.36376,1.3422 -3.33597,0.50473 -6.68695,-0.16469 -10.03233,0.24273 -3.01994,0.12863 -6.18183,0.73112 -9.02409,-0.63726 -1.47848,-0.24861 -2.58577,1.36217 -4.03362,1.63739 -2.81235,0.98318 -5.95723,-0.033 -8.36348,-1.62145 -2.72937,0.98653 -5.617466,1.27652 -8.503316,1.08409 -5.62596,0.006 -11.28739,0.1186 -16.87731,-0.596 -1.31861,-0.51196 -3.20418,-0.63917 -3.69513,-2.15345 0.20856,-1.24378 1.80739,-1.7494 2.73416,-2.48534 1.96912,-1.28042 4.49971,-1.15622 6.76921,-1.41352 2.41031,0.1803 4.79026,0.54325 7.1261,1.17141 -0.69672,-2.415492 -1.46181,-5.146782 -0.55243,-7.572292 0.89806,-1.20688 1.91249,-2.26883 3.35739,-2.79463 1.64072,-0.881 3.49276,-0.29474 5.199686,0.0683 0.24848,-1.63572 0.075,-3.68999 1.66515,-4.67361 1.02809,-1.08052 2.36324,-2.27683 2.64794,-3.7331 0.20751,-1.40784 -1.63787,-1.5635 -2.39666,-2.4338497 -1.65812,-1.1745596 -3.473176,-2.4100096 -4.475436,-4.1875196 -0.87946,-2.21451 -0.28357,-4.73366997 0.45961,-6.89863 1.325736,-2.830274 3.589476,-5.119724 4.983706,-7.880724 0.17334,-1.0665097 -1.59916,-1.6255807 -2.2024,-2.4758407 -2.319946,-1.89323 -4.479216,-3.94614 -6.322656,-6.31291 -0.96954,-1.09716 -1.8839,-2.24037 -2.80318,-3.37949 -2.09869,1.28578 -3.85114,3.0955 -6.23313,3.88582 -1.3573,0.40257 -2.86351,0.70994 -4.25432,0.77785 -1.31544,-0.51738 -2.5566,-2.03673 -1.98299,-3.51836 0.51211,-3.40155 1.32684,-6.87258 3.13462,-9.81806 1.44403,-1.55874 2.36696,-3.74333 4.49304,-4.48292 0.16628,-0.0889 0.33253,-0.17785 0.49878,-0.26679 z"
         id="path10" /></g><path
       style="fill:#ffffff;stroke-width:0"
       d="m 447.43429,-194.65958 c -12.67408,0.47828 -25.58219,-0.39604 -38.11657,1.45034 -3.1296,7.51124 -3.82857,16.16247 -4.75306,24.27069 1.41162,3.30549 6.83283,1.04815 9.72713,1.92798 11.45062,0.33157 23.05728,-0.0703 34.41061,0.59321 -23.27553,46.90807 -48.22124,93.094797 -70.86762,140.326232 -2.16697,7.464833 -3.4136,15.370324 -4.24019,22.8973719 3.91464,2.99101 9.94273,0.9626544 14.58793,1.7252079 20.25129,0.1196874 40.50318,0.03961 60.75472,0.063292 2.99396,-6.2716243 3.48946,-14.2718708 4.14812,-21.4226008 2.39328,-8.432065 -7.63449,-4.894253 -12.53003,-5.683018 -10.56595,-0.122544 -21.13192,-0.243231 -31.69788,-0.364458 23.02753,-45.065616 47.45267,-89.439537 69.22978,-135.129127 4.66845,-9.51018 6.75352,-20.26977 6.66707,-30.70772 -12.32128,-0.5326 -24.91374,0.12671 -37.32001,0.0526 z"
       id="path14"
       transform="scale(0.26458333)" /><path
       style="fill:#ffffff;stroke-width:0"
       d="m 538.44701,-194.30639 c -11.00018,0.37149 -23.92969,-1.50964 -32.38471,7.31183 -6.32152,6.44069 -6.09524,16.55269 -8.53842,24.7583 -9.64278,49.53301 -18.58572,99.215427 -27.74079,148.83375 -0.0115,3.8356893 -1.63604,9.0229807 0.57863,11.9972539 7.99185,-0.7342934 16.765,1.46315195 24.36462,-1.4071318 5.94687,-22.4811071 9.57571,-45.6864361 14.48463,-68.4685451 7.51985,-1.716224 14.99761,-3.691387 22.6306,-4.854508 -3.63144,24.733331 -8.89615,49.288483 -11.49941,74.1365287 2.86711,3.4444137 10.20114,0.7223756 14.8979,1.54207468 3.61456,-0.69850158 8.81052,1.09524063 11.56145,-1.67170788 11.31118,-53.0935555 20.51312,-106.6358345 30.70516,-159.9584545 1.3397,-10.07721 4.68988,-20.15405 4.51073,-30.31628 -2.87732,-2.83605 -8.15165,-0.89721 -11.83888,-1.72263 -10.57485,-0.25451 -21.15454,-0.19404 -31.73151,-0.18048 z m 2.81239,25.53316 c 6.14942,-1.14597 9.702,0.17141 7.33954,6.60198 -3.41425,19.58404 -6.04012,39.47977 -11.03866,58.75359 -2.16725,2.48768 -6.98201,1.19045 -9.8715,2.68462 -4.54452,0.929086 -9.28047,2.117448 -13.71535,2.842465 4.68033,-22.586505 8.18748,-45.538225 13.76134,-67.842945 2.72927,-4.19088 9.40073,-2.48149 13.52463,-3.03971 z"
       id="path15"
       transform="scale(0.26458333)" /><path
       style="fill:#ffffff;stroke-width:0"
       d="m 661.92335,-194.31766 c -3.50752,0.67793 -8.40117,-1.15743 -11.17064,1.34514 -8.95266,38.86723 -15.34025,78.31124 -22.93648,117.470105 -3.15883,15.738284 -5.50347,32.043532 -9.65113,47.335347 -6.67329,1.309751 -13.57824,0.445305 -20.33484,0.715777 0.95742,-11.758129 4.93862,-23.166488 5.10813,-34.939719 -1.79181,-4.918021 -8.78775,-2.686804 -12.75232,-3.506975 -4.37422,0.539214 -12.64417,-2.137356 -13.48722,4.448189 -3.60466,16.134475 -7.61682,32.406884 -8.63818,48.93778 -0.14242,4.9895085 4.54951,9.3976251 8.486,11.1067599 18.609,-0.1858073 37.35884,0.3663435 55.88138,-0.2724058 6.38633,-5.1169103 12.08169,-11.6979441 12.71492,-20.2296421 11.21915,-56.342745 21.74937,-112.851386 32.4918,-169.271076 0.65656,-4.86544 -6.32515,-2.33839 -9.02707,-3.12237 -2.22801,-0.0279 -4.45623,-0.0321 -6.68435,-0.0169 z"
       id="path16"
       transform="scale(0.26458333)" /><path
       style="fill:#ffffff;stroke-width:0"
       d="m 747.58559,-194.0941 c -13.59768,0.12633 -27.2442,0.27347 -40.80308,0.8642 -6.94336,3.19198 -12.85347,8.76638 -14.3118,16.52488 -7.91938,32.65894 -12.61452,66.01673 -19.147,98.971801 -4.29006,24.923545 -9.81909,49.684896 -13.02542,74.7686609 3.89138,2.43908038 10.2507,0.828029 15.18351,1.4259174 4.28001,-0.033445 11.19581,1.16014861 12.02168,-4.8019122 5.50985,-20.9260181 7.39497,-42.8144691 13.28979,-63.5313631 4.59573,-3.348389 11.26405,-3.316319 16.62679,-5.224401 2.39513,-0.285295 7.25442,-3.04704 5.61304,1.549693 -2.78132,23.563747 -8.79199,46.768566 -11.09737,70.3960758 1.31833,4.1621048 7.66907,1.9828776 10.86254,2.77856807 4.99121,-0.64498227 11.47059,1.04033624 15.53481,-2.42725887 5.17578,-17.860135 7.39414,-36.539093 11.25695,-54.741274 7.67061,-42.647907 16.68585,-85.072117 23.43103,-127.875957 2.53271,-6.9513 -1.20505,-9.85033 -8.02557,-8.47024 -5.80048,-0.22529 -11.60603,-0.22422 -17.4099,-0.20739 z m -14.20095,25.29269 c 2.36298,0.29315 5.90701,-0.41185 7.68756,0.83414 -3.21808,21.20704 -6.69818,42.45601 -11.52759,63.35477 -1.20781,3.27981 -6.40563,2.15658 -9.09845,3.55259 -4.67614,0.61528 -9.81559,2.73289 -14.35689,2.03461 4.11673,-22.40401 8.01724,-44.93484 13.77074,-66.98814 1.32142,-4.12275 7.54793,-1.73039 10.69501,-2.74706 0.9428,-0.0371 1.88641,-0.0274 2.82962,-0.0409 z"
       id="path17"
       transform="scale(0.26458333)" /><path
       style="fill:#ffffff;stroke-width:0"
       d="m 833.83773,-194.43789 c -11.45321,0.8863 -23.95521,-1.08054 -34.59028,4.11243 -8.09649,6.18297 -7.97305,17.81543 -10.51451,26.80962 -9.59968,48.87961 -18.90111,97.834876 -27.50249,146.897027 -1.91209,8.9613435 6.65547,16.71728116 15.31422,16.01730789 16.24236,-0.17523619 32.64803,0.12673796 48.76009,-1.97604829 9.56751,-3.9242788 13.23584,-14.5720276 14.43919,-24.0567126 2.61855,-14.712982 6.19373,-29.50177 7.10365,-44.376137 -5.18255,-2.160297 -11.59736,-0.66321 -17.20496,-1.093394 -3.42418,0.402953 -9.73993,-1.290493 -9.45669,4.14811 -3.20321,13.109471 -4.57548,27.004553 -8.62562,39.692806 -6.56166,0.926324 -13.71336,1.449926 -20.08123,0.06199 1.20339,-15.483481 5.42665,-30.687418 7.84286,-46.050221 5.81131,-30.830238 11.56527,-61.672508 17.60201,-92.459318 7.08941,-0.13763 14.17888,0.19387 21.26667,0.31374 -2.04396,13.56676 -6.30722,27.19245 -6.34243,40.8538 8.49352,0.0854 17.46528,0.68348 25.87508,-0.91679 4.10924,-14.00884 5.6992,-28.88481 8.3843,-43.29737 0.90486,-6.86048 4.18123,-16.18618 -3.09769,-20.87088 -7.78534,-5.40255 -18.22127,-3.10293 -27.13002,-3.81964 -0.68071,0.003 -1.36143,0.006 -2.04215,0.01 z"
       id="path18"
       transform="scale(0.26458333)" /><path
       style="fill:#ffffff;stroke-width:0"
       d="m 927.88829,-194.74224 c -11.62418,0.87426 -25.50246,-2.12225 -34.75561,6.891 -7.22684,8.89664 -6.87643,21.3962 -9.74303,32.01731 -8.76019,46.22609 -17.85454,92.411635 -25.87301,138.764234 -1.0928,6.312071 2.88656,13.2739443 8.37892,15.6644399 18.15982,-0.5152914 36.47915,1.05301385 54.54939,-0.9374627 12.00876,-3.1489226 14.08614,-17.4226112 16.03311,-27.7124912 9.1655,-48.857693 19.17961,-97.58695 26.87964,-146.70263 0.12632,-4.87595 2.64961,-11.03846 -3.02083,-13.66343 -6.64019,-5.7307 -16.40283,-3.40316 -24.44136,-4.30342 -2.66894,-0.0329 -5.33815,-0.0309 -8.00722,-0.0175 z m -4.28152,27.89278 c 3.33556,0.35099 7.49986,-0.64454 10.34214,0.74208 -8.18808,45.3579 -16.34371,90.763407 -25.45989,135.930117 -0.75959,3.875165 -6.64228,1.367329 -9.37274,2.44793 -3.51545,-0.933154 -12.9234,3.172613 -11.54352,-2.010917 8.48983,-45.706395 16.98165,-91.41241 25.52279,-137.10921 3.50374,0 7.00748,0 10.51122,0 z"
       id="path19"
       transform="scale(0.26458333)" /><path
       style="fill:#ffffff;stroke-width:0"
       d="m 1042.1685,-194.33269 c -4.1882,0.31993 -11.1558,-0.86843 -11.5558,5.19456 -12.1291,38.33825 -22.4628,77.29207 -34.57712,115.591506 2.82713,-38.719226 8.00022,-77.316486 10.13362,-116.093116 1.3352,-6.47284 -7.35089,-3.50058 -11.15938,-4.56896 -5.31079,0.47034 -12.25655,-1.69844 -16.58312,2.1154 -2.4968,12.83115 -1.97803,26.22278 -3.23148,39.25948 -2.67994,49.18036 -6.23609,98.324755 -8.45392,147.5227917 -0.35035,5.01098754 6.58646,2.8999291 9.57471,3.6906658 7.5133,-0.00545 15.29612,1.05377382 22.67661,-0.3710374 19.34228,-62.0411441 38.44358,-124.3454701 57.47448,-186.5493101 1.5632,-3.50259 -1.6849,-6.09836 -5.0705,-5.54024 -3.0681,-0.25996 -6.1508,-0.29805 -9.2281,-0.25174 z"
       id="path20"
       transform="scale(0.26458333)" /><path
       style="fill:#ffffff;stroke-width:0"
       d="m 1079.4979,-193.83484 c -3.6567,-0.35849 -8.8415,0.40786 -8.5706,5.24152 -12.2101,61.0505 -23.4121,122.306301 -34.8364,183.5077287 -1.1229,4.96749107 6.1935,3.1803762 8.9857,3.5381878 6.0156,-0.5691665 12.8034,0.80962816 18.3078,-1.1522612 11.6783,-62.9413423 24.3367,-125.7156853 35.338,-188.7736753 -4.3428,-3.06695 -11.3269,-1.88774 -16.8123,-2.37277 -0.8041,0.004 -1.6081,0.008 -2.4122,0.0113 z"
       id="path21"
       transform="scale(0.26458333)" /><path
       style="fill:#ffffff;stroke-width:0"
       d="m 1155.1505,-194.67461 c -10.3075,0.66168 -21.185,-0.67353 -31.0602,2.81427 -10.7812,4.70966 -11.4791,17.83099 -13.4393,27.77309 -9.2887,49.74756 -19.4304,99.368786 -27.1365,149.390322 -1.012,5.9265865 4.3032,11.4120333 9.1586,13.2916719 18.0554,-0.5917901 36.315,1.2393021 54.2544,-1.1816853 9.8188,-2.611354 13.2646,-13.4979866 14.4416,-22.4671496 2.6678,-14.874781 6.1314,-29.749629 7.8076,-44.725773 -2.4111,-4.341958 -8.921,-2.149745 -12.9591,-2.862684 -4.7674,0.215693 -12.9367,-1.539449 -13.7726,5.26176 -3.5792,12.816866 -5.3319,26.154584 -8.6833,38.961975 -6.8805,0.584067 -13.9505,1.399774 -20.8195,0.657535 8.345,-46.163328 16.7965,-92.387322 25.7266,-138.411852 6.9103,-1.10156 14.4438,-1.02357 21.3231,-0.0827 -1.4579,13.35043 -5.769,26.67251 -5.9179,40.03094 8.281,0.17807 17.0345,1.50443 25.2626,0.008 3.2494,-3.95987 2.3198,-10.24663 3.9682,-15.00552 2.2168,-13.8975 5.729,-27.72924 6.5111,-41.78515 -0.6473,-4.7636 -5.2089,-8.81091 -9.0718,-10.69718 -8.5162,-0.69885 -17.0466,-1.1035 -25.5936,-0.96943 z"
       id="path22"
       transform="scale(0.26458333)" /><path
       style="fill:#ffffff;stroke-width:0"
       d="m 1183.0621,-219.64604 c -14.9079,0.81892 -30.1798,-0.20297 -44.7897,3.25012 -5.816,1.59182 -7.6679,8.43516 -7.9092,13.62419 18.5503,0.6908 37.4476,-0.22266 56.1312,-0.14841 2.7357,-4.3987 4.3876,-10.28968 5.0386,-15.63627 -1.6171,-2.41173 -6.0313,-0.46445 -8.4709,-1.08963 z"
       id="path23"
       transform="scale(0.26458333)" /></g></svg>
