<?xml version="1.0" encoding="UTF-8" standalone="no"?>
<!-- Created with Inkscape (http://www.inkscape.org/) -->

<svg
   version="1.1"
   id="svg1"
   width="335.51044"
   height="370.88074"
   viewBox="0 0 335.51044 370.88074"
   xmlns="http://www.w3.org/2000/svg"
   xmlns:svg="http://www.w3.org/2000/svg">
  <defs
     id="defs1" />
  <g
     id="g1"
     transform="translate(-538.59308,-90.431785)">
    <path
       style="fill:#e22a2a;fill-opacity:1"
       d="m 597.40942,103.34449 c 9.60856,1.92158 19.24035,5.18095 28.83464,6.28059 7.36052,-1.46912 15.00216,-5.11329 22.19646,-5.29645 10.72165,4.71006 15.77804,16.09983 23.60847,24.21883 9.50578,19.11711 20.30972,37.69963 29.00838,57.14912 2.20502,7.04183 4.41003,14.08366 6.61505,21.12549 6.73205,-0.78123 14.27667,1.61917 20.11391,-2.66569 0.6351,-18.19222 4.86972,-36.50073 14.95479,-51.85649 7.86225,-13.38931 18.81355,-24.72899 31.06966,-34.13504 14.67616,-11.68595 32.55573,-18.236328 50.49916,-23.076076 11.98897,-2.766654 24.5495,-5.249631 36.85126,-4.531779 6.90956,-0.481817 14.08148,4.553593 12.7539,12.060485 0.7175,10.36658 -0.44309,20.89427 -6.4724,29.6761 -7.99584,14.07756 -18.63389,26.40281 -30.73223,37.09356 -14.35322,13.98306 -30.49331,26.14354 -46.81102,37.75151 -11.0831,7.78436 -22.40548,15.22322 -34.00211,22.2207 2.91813,9.2048 11.13605,15.65058 15.96485,23.95877 8.16029,10.7902 16.14144,23.50466 14.32718,37.62629 -0.0182,6.83412 1.53733,14.86274 -5.37613,19.02342 -9.99521,8.66639 -20.56382,16.68207 -32.42833,22.62677 -2.14664,5.57199 -1.90312,12.1008 3.63505,15.50952 6.83825,4.30354 12.26009,10.59103 12.98265,18.93837 1.41684,5.16583 0.63774,13.51136 8.39346,10.64294 8.67532,-1.96138 18.01316,-0.48759 24.44128,6.00958 6.13184,4.37151 11.14098,11.29306 8.97927,19.14152 -0.50994,8.77541 -4.5623,16.90768 -6.32941,25.48089 10.80543,-1.11103 21.16891,-5.15548 32.21807,-4.97624 11.94973,-1.3084 24.0296,2.44026 33.05169,10.4026 5.5975,3.284 7.32794,10.42138 -0.005,12.81132 -7.4236,5.79335 -17.68821,5.09754 -26.63105,6.66399 -16.5631,2.50599 -33.20071,-0.81769 -49.81062,1.20518 -14.99393,0.63857 -30.69272,3.62999 -44.80456,-3.16401 -7.34062,-1.23437 -12.83833,6.76315 -20.0269,8.12963 -13.96328,4.88147 -29.5776,-0.16359 -41.52466,-8.05052 -13.55132,4.89812 -27.89074,6.33795 -42.21896,5.38254 -27.93292,0.026 -56.04195,0.58882 -83.79589,-2.95918 -6.54679,-2.54186 -15.90867,-3.17344 -18.34624,-10.69191 1.03552,-6.17536 8.97372,-8.68571 13.57514,-12.33966 9.77664,-6.3573 22.34103,-5.74065 33.60911,-7.01813 11.96724,0.89518 23.78367,2.69719 35.3811,5.81607 -3.45922,-11.99294 -7.2579,-25.55376 -2.7428,-37.59644 4.45886,-5.99215 9.49547,-11.26472 16.66945,-13.8753 8.14611,-4.37417 17.34152,-1.4634 25.81649,0.33879 1.23363,-8.12129 0.37217,-18.3208 8.2674,-23.20446 5.10447,-5.36477 11.7335,-11.30444 13.14698,-18.5348 1.0303,-6.98994 -8.13194,-7.76282 -11.89937,-12.08403 -8.23256,-5.83178 -17.24433,-11.96581 -22.22058,-20.79107 -4.3665,-10.9951 -1.40792,-23.50272 2.28195,-34.2517 6.58234,-14.05228 17.82183,-25.41947 24.74416,-39.12778 0.86063,-5.29524 -7.93983,-8.07103 -10.93488,-12.29255 -11.51859,-9.39994 -22.23935,-19.59266 -31.39204,-31.34358 -4.81374,-5.44746 -9.35354,-11.12354 -13.91779,-16.77922 -10.41999,6.38391 -19.12092,15.36914 -30.94752,19.29311 -6.73901,1.99879 -14.21729,3.52486 -21.1227,3.86203 -6.53112,-2.56882 -12.69347,-10.11236 -9.84549,-17.46866 2.54258,-16.88871 6.58776,-34.1224 15.56335,-48.74665 7.16961,-7.73916 11.75193,-18.58562 22.308,-22.2577 0.82548,-0.44153 1.65095,-0.88306 2.47643,-1.3246 z"
       id="path10" />
  </g>
</svg>
